<?xml version="1.0" encoding="UTF-8"?><svg id="uuid-62f8afda-3efc-4108-a8de-420edd08a3ab" xmlns="http://www.w3.org/2000/svg" viewBox="0 0 450 450"><defs><style>.uuid-30d007a5-91d9-4527-ac68-bea2986e0c36{fill:#fff;}.uuid-d26e30f2-f503-4dd9-bc58-e58c2c174a56{fill:#4682b4;}</style></defs><rect class="uuid-d26e30f2-f503-4dd9-bc58-e58c2c174a56" width="450" height="450" rx="32" ry="32"/><g id="uuid-5f9251db-debf-4530-9b99-15a319eec849"><path class="uuid-30d007a5-91d9-4527-ac68-bea2986e0c36" d="M112.2923,121.4746c2.4961-1.7713,5.6121,1.1464,3.991,3.7425-16.2823,26.076-24.4234,59.0804-24.4234,99.0075,0,46.8332,10.0816,83.5102,30.2449,110.0351,1.8755,2.4672-1.129,5.6825-3.7428,4.0174-14.0036-8.9212-25.5551-21.9065-34.6584-38.9587-11.8125-21.9375-17.7188-46.6875-17.7188-74.25,0-18.936,3.0938-36.3735,9.2812-52.3125,5.8096-15.75,12.7485-28.0283,20.8125-36.8438,4.7026-5.2925,10.1071-10.1043,16.2137-14.4376ZM359.2488,310.0059h.9321c1.748,0,3.0649,1.5897,2.7397,3.3072l-8.0834,42.6903c-.1804.9529-.8468,1.75-1.7528,2.0963-16.9139,6.4643-33.2086,11.2474-48.8814,14.3438-16.127,3.1855-31.6885,4.7812-46.6875,4.7812-45.3774,0-80.9072-13.2188-106.5933-39.6562-25.6904-26.248-38.5312-64.4062-38.5312-114.4688,0-49.8735,13.7812-88.0312,41.3438-114.4688,27.3735-26.2485,63.5625-39.375,108.562-39.375,31.9704,0,64.3,5.6716,96.9915,17.0149,1.1865.4117,1.953,1.5762,1.8737,2.8296-1.4119,22.3389-2.1152,35.6004-2.1152,39.7805,0,3.9375.0928,7.7827.2812,11.5312v6.75c0,8.8303-.3852,17.275-1.1533,25.3341-.136,1.4271-1.3453,2.5096-2.7789,2.5096h0c-1.3153,0-2.443-.9255-2.7229-2.2107-12.0127-55.1498-44.2934-82.7268-96.8449-82.7268-35.9995,0-64.687,11.7202-86.062,35.1562-21.375,23.2515-32.0625,56.8125-32.0625,100.6875,0,38.4395,9.8438,69.6582,29.5312,93.6562,19.4985,24.0029,48.9375,36,88.312,36,21.749,0,41.625-4.3105,59.625-12.9375,17.3542-8.0363,31.3284-18.5682,41.9198-31.5904.5297-.6513,1.3177-1.0346,2.1572-1.0346Z"/></g></svg>