<?xml version="1.0" encoding="UTF-8"?><svg id="uuid-d8da9866-0bbc-478d-89f4-4f649985cad9" xmlns="http://www.w3.org/2000/svg" viewBox="0 0 450 450"><defs><style>.uuid-ae19aced-a3bd-4c92-9808-5e40671037b0{fill:#fff;}.uuid-4327e4d8-6f1a-43f2-9689-c1a5d5b96ddf{fill:#4682b4;}</style></defs><rect class="uuid-4327e4d8-6f1a-43f2-9689-c1a5d5b96ddf" width="450" height="450" rx="32" ry="32"/><g id="uuid-0fd8d263-cd85-4088-9368-2b9b684dcab5"><path class="uuid-ae19aced-a3bd-4c92-9808-5e40671037b0" d="M123.75,275.6252h6.4688c1.3096,24.002,10.9688,43.7822,28.9688,59.3438,17.6221,15.376,37.8721,23.0625,60.75,23.0625,17.6221,0,31.9658-4.9668,43.0312-14.9062,11.0605-9.9365,16.5938-21.8418,16.5938-35.7188,0-14.625-5.3438-25.9678-16.0312-34.0312-10.3135-7.875-30.6562-16.7793-61.0312-26.7188-24.3765-8.0605-41.7217-14.7178-52.0312-19.9692-12.0015-6.1875-21.375-14.5283-28.125-25.0312-7.3125-10.6875-10.9688-22.6846-10.9688-36,0-14.8096,4.9658-29.3423,14.9062-43.5938-2.25,7.3125-3.375,13.689-3.375,19.125,0,14.625,3.4673,27.4702,10.4062,38.5312,7.1235,11.439,15.9346,20.0654,26.4375,25.875,10.4985,6.0029,28.0283,12.8452,52.5938,20.5312,32.0625,9.7515,55.2178,20.5317,69.4688,32.3442,13.6846,11.4385,20.5312,26.8145,20.5312,46.125,0,18.9395-7.1279,36.0957-21.375,51.4688-14.4404,15.5645-36,23.3438-64.6875,23.3438-11.6279,0-27.7515-2.1582-48.375-6.4688-18-3.749-31.5-5.7178-40.5-5.9062l-1.9688-2.25c.1846-3.1865.2812-7.3125.2812-12.375,0-5.999-.5625-15.2803-1.6875-27.8438-.9404-12.5605-1.4062-21.9375-1.4062-28.125,0-8.0605.3735-14.999,1.125-20.8125ZM322.3125,158.0623h-5.9062c-.1895-21.7485-8.8154-37.8721-25.875-48.375-16.6904-10.3096-36.9404-15.4688-60.75-15.4688-18.9404,0-34.5015,4.0342-46.6875,12.0938-12.375,8.064-18.5625,17.7188-18.5625,28.9688,0,12.0015,4.8735,21.4717,14.625,28.4062,10.125,7.5015,30.0938,16.4092,59.9062,26.7188,27.7471,9.5625,47.1533,17.3452,58.2188,23.3438,11.8125,6.5654,21.6562,15.939,29.5312,28.1255,7.875,12.5635,11.8125,26.5332,11.8125,41.9062,0,23.4395-8.627,41.8135-25.875,55.125,6.3721-8.8115,9.5625-21.1865,9.5625-37.125,0-14.999-3.4717-28.3105-10.4062-39.9375-7.3125-11.8125-16.3125-21.1865-27-28.125-10.877-7.124-28.5947-14.7178-53.1562-22.7817-36.9404-12.186-61.0312-22.5923-72.2812-31.2188-11.25-8.811-16.875-22.5-16.875-41.0625,0-21.375,8.6221-38.1533,25.875-50.3438,17.2485-11.8125,41.7173-17.7188,73.4062-17.7188,21.5596,0,47.9043,3.7529,79.0312,11.25v1.9688l.5625,10.6875c0,5.625.1846,12.375.5625,20.25.5625,9.5625.8438,18,.8438,25.3125,0,4.8779-.1895,10.8765-.5625,18Z"/></g></svg>